<svg width="219" height="39" viewBox="0 0 219 39" fill="none" xmlns="http://www.w3.org/2000/svg">
<path d="M197.215 1H21.7853C9.75363 1 0 9.50659 0 20C0 30.4934 9.75363 39 21.7853 39H197.215C209.246 39 219 30.4934 219 20C219 9.50659 209.246 1 197.215 1Z" fill="#F5F5F5"/>
<path d="M194.359 30.295V33.174C194.871 33.1038 195.363 32.9515 195.812 32.725L205.256 28.015C205.906 27.6915 206.446 27.2236 206.822 26.6589C207.197 26.0941 207.394 25.4527 207.392 24.8V15.416C207.392 15.006 207.306 14.594 207.135 14.183L204.272 15.641L196.368 19.603C194.743 20.613 194.401 21.547 194.359 22.669V30.295V30.295Z" fill="#FBBF09"/>
<path d="M203.632 14.631L206.495 13.173C206.169 12.7735 205.746 12.4416 205.256 12.201L195.812 7.49097C194.487 6.81797 192.863 6.85497 191.581 7.49097L182.18 12.201C181.667 12.463 181.24 12.799 180.898 13.211L183.761 14.669L191.667 18.631C192.607 19.155 193.248 19.678 193.676 20.276C194.102 19.678 194.743 19.155 195.683 18.631L203.632 14.631V14.631Z" fill="#00A275"/>
<path d="M183.162 15.678L180.257 14.22C180.086 14.594 180 15.005 180 15.416V24.837C180 26.146 180.813 27.379 182.137 28.052L191.539 32.762C191.966 32.987 192.478 33.136 192.991 33.212V22.668C192.949 21.546 192.607 20.612 190.983 19.602L183.163 15.677L183.162 15.678Z" fill="#EB8A04"/>
<path d="M207.135 14.183L204.272 15.641C204.358 15.902 204.444 16.201 204.444 16.501V23.753C204.444 24.8 203.802 25.809 202.735 26.333L195.47 29.959C195.128 30.109 194.787 30.22 194.401 30.295V33.174C194.913 33.1038 195.406 32.9515 195.854 32.725L205.256 28.015C205.906 27.6915 206.446 27.2236 206.822 26.6589C207.197 26.0941 207.394 25.4527 207.392 24.8V15.416C207.392 15.006 207.306 14.594 207.135 14.183V14.183Z" fill="#F5EA64"/>
<path d="M184.744 13.921L191.966 10.295C193.035 9.77097 194.359 9.77097 195.384 10.295L202.649 13.921C203.034 14.108 203.332 14.37 203.589 14.631L206.452 13.173C206.126 12.7735 205.704 12.4416 205.214 12.201L195.812 7.49097C194.487 6.81797 192.863 6.85497 191.581 7.49097L182.18 12.201C181.667 12.463 181.24 12.799 180.898 13.211L183.761 14.669C184.06 14.369 184.36 14.108 184.744 13.921V13.921Z" fill="#48C0ED"/>
<path d="M191.965 29.959L184.743 26.333C183.676 25.809 183.035 24.8 183.035 23.753V16.5C183.035 16.201 183.077 15.94 183.162 15.678L180.257 14.22C180.086 14.594 180 15.005 180 15.416V24.837C180 26.146 180.813 27.379 182.137 28.052L191.539 32.762C191.966 32.987 192.478 33.136 192.991 33.212V30.332C192.649 30.22 192.308 30.108 191.966 29.959H191.965Z" fill="#FDD657"/>
<path d="M48.0691 25C51.1713 25 52.9661 23.076 52.9661 19.8942C52.9661 16.7273 51.1713 14.8182 48.1735 14.8182H44.7729V25H48.0691ZM46.3091 23.6577V16.1605H48.079C50.3063 16.1605 51.4547 17.4929 51.4547 19.8942C51.4547 22.3054 50.3063 23.6577 47.9846 23.6577H46.3091ZM58.0483 25.1541C59.7138 25.1541 60.892 24.3338 61.2301 23.0909L59.8232 22.8374C59.5547 23.5582 58.9084 23.9261 58.0632 23.9261C56.7905 23.9261 55.9354 23.1009 55.8956 21.6293H61.3246V21.1023C61.3246 18.343 59.674 17.2642 57.9439 17.2642C55.8161 17.2642 54.4141 18.8849 54.4141 21.2315C54.4141 23.603 55.7962 25.1541 58.0483 25.1541ZM55.9006 20.5156C55.9602 19.4318 56.7457 18.4922 57.9538 18.4922C59.1072 18.4922 59.8629 19.3473 59.8679 20.5156H55.9006ZM62.9739 27.8636H64.4604V23.8118H64.5499C64.8184 24.299 65.3652 25.1491 66.7573 25.1491C68.6067 25.1491 69.949 23.6676 69.949 21.1967C69.949 18.7209 68.5868 17.2642 66.7424 17.2642C65.3255 17.2642 64.8134 18.1293 64.5499 18.6016H64.4256V17.3636H62.9739V27.8636ZM64.4306 21.1818C64.4306 19.5859 65.1266 18.527 66.4242 18.527C67.7715 18.527 68.4476 19.6655 68.4476 21.1818C68.4476 22.7131 67.7516 23.8814 66.4242 23.8814C65.1465 23.8814 64.4306 22.7876 64.4306 21.1818ZM73.101 14.8182H71.6145V25H73.101V14.8182ZM78.3175 25.1541C80.4702 25.1541 81.8771 23.5781 81.8771 21.2166C81.8771 18.8402 80.4702 17.2642 78.3175 17.2642C76.1648 17.2642 74.7578 18.8402 74.7578 21.2166C74.7578 23.5781 76.1648 25.1541 78.3175 25.1541ZM78.3224 23.9062C76.9155 23.9062 76.2592 22.6783 76.2592 21.2116C76.2592 19.75 76.9155 18.5071 78.3224 18.5071C79.7195 18.5071 80.3757 19.75 80.3757 21.2116C80.3757 22.6783 79.7195 23.9062 78.3224 23.9062ZM84.2026 27.8636C85.4306 27.8636 86.2061 27.2223 86.6486 26.0192L89.8056 17.3786L88.1998 17.3636L86.2658 23.2898H86.1863L84.2523 17.3636H82.6614L85.4554 25.0994L85.2715 25.6065C84.8936 26.6207 84.3617 26.7053 83.5463 26.4815L83.1884 27.6996C83.3674 27.7791 83.7551 27.8636 84.2026 27.8636ZM96.5669 25H98.0783L99.6294 19.4865H99.7438L101.295 25H102.811L105.053 17.3636H103.517L102.031 22.9467H101.956L100.465 17.3636H98.9284L97.427 22.9716H97.3525L95.856 17.3636H94.3198L96.5669 25ZM106.464 25H107.951V17.3636H106.464V25ZM107.215 16.1854C107.727 16.1854 108.154 15.7876 108.154 15.3004C108.154 14.8132 107.727 14.4105 107.215 14.4105C106.698 14.4105 106.275 14.8132 106.275 15.3004C106.275 15.7876 106.698 16.1854 107.215 16.1854ZM113.515 17.3636H111.949V15.5341H110.463V17.3636H109.344V18.5568H110.463V23.0661C110.458 24.4531 111.517 25.1243 112.69 25.0994C113.162 25.0945 113.48 25.005 113.654 24.9403L113.386 23.7124C113.286 23.7322 113.102 23.777 112.864 23.777C112.382 23.777 111.949 23.6179 111.949 22.7578V18.5568H113.515V17.3636ZM116.81 20.4659C116.81 19.2479 117.581 18.5518 118.64 18.5518C119.664 18.5518 120.275 19.2031 120.275 20.3217V25H121.762V20.1428C121.762 18.2386 120.718 17.2642 119.147 17.2642C117.958 17.2642 117.243 17.7812 116.885 18.6065H116.79V14.8182H115.324V25H116.81V20.4659ZM127.57 25H131.472C133.839 25 134.908 23.8217 134.908 22.2607C134.908 20.6847 133.804 19.7947 132.795 19.7401V19.6406C133.73 19.402 134.51 18.7656 134.51 17.4929C134.51 15.9865 133.466 14.8182 131.298 14.8182H127.57V25ZM129.106 23.6825V20.4212H131.378C132.611 20.4212 133.382 21.2166 133.382 22.1861C133.382 23.0412 132.8 23.6825 131.323 23.6825H129.106ZM129.106 19.223V16.1257H131.204C132.422 16.1257 133.004 16.767 133.004 17.6122C133.004 18.5966 132.198 19.223 131.164 19.223H129.106ZM138.833 25.169C140.096 25.169 140.807 24.5277 141.09 23.956H141.15V25H142.601V19.929C142.601 17.7067 140.851 17.2642 139.638 17.2642C138.256 17.2642 136.983 17.821 136.486 19.2131L137.883 19.5312C138.102 18.9893 138.659 18.4673 139.658 18.4673C140.618 18.4673 141.11 18.9695 141.11 19.8345V19.8693C141.11 20.4112 140.553 20.4013 139.181 20.5604C137.734 20.7294 136.253 21.1072 136.253 22.8423C136.253 24.3438 137.381 25.169 138.833 25.169ZM139.156 23.9759C138.316 23.9759 137.709 23.598 137.709 22.8622C137.709 22.0668 138.415 21.7834 139.275 21.669C139.758 21.6044 140.901 21.4751 141.115 21.2614V22.2457C141.115 23.1506 140.394 23.9759 139.156 23.9759ZM146.068 14.8182H144.581V25H146.068V14.8182ZM151.359 25.1541C153.024 25.1541 154.203 24.3338 154.541 23.0909L153.134 22.8374C152.865 23.5582 152.219 23.9261 151.374 23.9261C150.101 23.9261 149.246 23.1009 149.206 21.6293H154.635V21.1023C154.635 18.343 152.985 17.2642 151.254 17.2642C149.127 17.2642 147.725 18.8849 147.725 21.2315C147.725 23.603 149.107 25.1541 151.359 25.1541ZM149.211 20.5156C149.271 19.4318 150.056 18.4922 151.264 18.4922C152.418 18.4922 153.173 19.3473 153.178 20.5156H149.211ZM157.771 20.4659C157.771 19.2479 158.517 18.5518 159.551 18.5518C160.56 18.5518 161.172 19.2131 161.172 20.3217V25H162.658V20.1428C162.658 18.2536 161.619 17.2642 160.058 17.2642C158.909 17.2642 158.159 17.7962 157.806 18.6065H157.711V17.3636H156.284V25H157.771V20.4659ZM166.874 25.169C168.137 25.169 168.848 24.5277 169.131 23.956H169.191V25H170.642V19.929C170.642 17.7067 168.892 17.2642 167.679 17.2642C166.297 17.2642 165.025 17.821 164.527 19.2131L165.924 19.5312C166.143 18.9893 166.7 18.4673 167.699 18.4673C168.659 18.4673 169.151 18.9695 169.151 19.8345V19.8693C169.151 20.4112 168.594 20.4013 167.222 20.5604C165.775 20.7294 164.294 21.1072 164.294 22.8423C164.294 24.3438 165.422 25.169 166.874 25.169ZM167.197 23.9759C166.357 23.9759 165.75 23.598 165.75 22.8622C165.75 22.0668 166.456 21.7834 167.316 21.669C167.799 21.6044 168.942 21.4751 169.156 21.2614V22.2457C169.156 23.1506 168.435 23.9759 167.197 23.9759Z" fill="black"/>
<path d="M12 10C12 8.89543 12.8954 8 14 8H34C35.1046 8 36 8.89543 36 10V30C36 31.1046 35.1046 32 34 32H14C12.8954 32 12 31.1046 12 30V10Z" fill="black"/>
<path d="M15 11C15.2911 15.4226 18.8274 18.9589 23.25 19.25V11H15Z" fill="white"/>
<path d="M33 15.125C33 17.4032 31.1532 19.25 28.875 19.25C26.5968 19.25 24.75 17.4032 24.75 15.125C24.75 12.8468 26.5968 11 28.875 11C31.1532 11 33 12.8468 33 15.125Z" fill="white"/>
<path d="M24.75 24.875V20.75H33V24.875C33 27.1532 31.1532 29 28.875 29C26.5968 29 24.75 27.1532 24.75 24.875Z" fill="white"/>
<path d="M15 20.75H23.25V29H15V20.75Z" fill="white"/>
</svg>
