<svg width="16" height="16" viewBox="0 0 16 16" fill="none" xmlns="http://www.w3.org/2000/svg">
<path d="M0 2C0 0.895431 0.895431 0 2 0H14C15.1046 0 16 0.895431 16 2V14C16 15.1046 15.1046 16 14 16H2C0.895431 16 0 15.1046 0 14V2Z" fill="black"/>
<path d="M2 2C2.19407 4.94843 4.55157 7.30593 7.5 7.5V2H2Z" fill="white"/>
<path d="M14 4.75C14 6.26878 12.7688 7.5 11.25 7.5C9.73122 7.5 8.5 6.26878 8.5 4.75C8.5 3.23122 9.73122 2 11.25 2C12.7688 2 14 3.23122 14 4.75Z" fill="white"/>
<path d="M8.5 11.25V8.5H14V11.25C14 12.7688 12.7688 14 11.25 14C9.73122 14 8.5 12.7688 8.5 11.25Z" fill="white"/>
<path d="M2 8.5H7.5V14H2V8.5Z" fill="white"/>
</svg>
